<svg xmlns="http://www.w3.org/2000/svg" viewBox="0 0 512 512" fill="none">
  <defs>
    <linearGradient id="watchBg" x1="54" y1="42" x2="458" y2="470" gradientUnits="userSpaceOnUse">
      <stop stop-color="#241c11"/>
      <stop offset="0.48" stop-color="#120f0a"/>
      <stop offset="1" stop-color="#070604"/>
    </linearGradient>
    <linearGradient id="watchGold" x1="128" y1="120" x2="390" y2="404" gradientUnits="userSpaceOnUse">
      <stop stop-color="#fff0ad"/>
      <stop offset="0.48" stop-color="#d9ba65"/>
      <stop offset="1" stop-color="#9c7430"/>
    </linearGradient>
    <linearGradient id="watchGlass" x1="122" y1="142" x2="390" y2="356" gradientUnits="userSpaceOnUse">
      <stop stop-color="#1d170e"/>
      <stop offset="1" stop-color="#0b0906"/>
    </linearGradient>
    <filter id="watchGlow" x="58" y="72" width="396" height="364" color-interpolation-filters="sRGB" filterUnits="userSpaceOnUse">
      <feGaussianBlur stdDeviation="10"/>
    </filter>
  </defs>
  <rect width="512" height="512" rx="112" fill="#080705"/>
  <rect x="42" y="42" width="428" height="428" rx="96" fill="url(#watchBg)" stroke="#d0ad58" stroke-width="10"/>
  <path d="M112 162h288M112 350h288" stroke="#3b2f19" stroke-width="16" stroke-linecap="round"/>
  <path d="M116 256c40-66 88-96 140-96s100 30 140 96c-40 66-88 96-140 96s-100-30-140-96Z" fill="url(#watchGlass)" stroke="url(#watchGold)" stroke-width="14" stroke-linejoin="round"/>
  <path d="M154 256c30-38 64-57 102-57s72 19 102 57c-30 38-64 57-102 57s-72-19-102-57Z" stroke="#4d3d1f" stroke-width="9" stroke-linejoin="round"/>
  <circle cx="256" cy="256" r="44" fill="url(#watchGold)"/>
  <circle cx="256" cy="256" r="18" fill="#0b0906"/>
  <circle cx="273" cy="236" r="9" fill="#fff4ba"/>
  <path d="M150 127h58M127 150v58M304 127h58M385 150v58M127 304v58M150 385h58M385 304v58M304 385h58" stroke="url(#watchGold)" stroke-width="18" stroke-linecap="round"/>
  <path d="M188 382l28-62 40 62 40-62 28 62" stroke="url(#watchGold)" stroke-width="18" stroke-linecap="round" stroke-linejoin="round"/>
  <path d="M116 256c40-66 88-96 140-96s100 30 140 96c-40 66-88 96-140 96s-100-30-140-96Z" stroke="#f5d77b" stroke-opacity="0.24" stroke-width="28" filter="url(#watchGlow)"/>
</svg>

